/* XPM */
static char *image_xpm[] = {
/* width height ncolors chars_per_pixel */
"31 31 4 1",
"  c #0000ff",
". c #000066",
"+ c #ff9900",
"@ c #ffffff",
"                          @....",
"                          @....",
"                          @....",
"                          @....",
"                          @....",
"                          @....",
"                          @....",
"                          @....",
"                          @....",
"                          @....",
"                          @....",
"                          @....",
"                          @....",
"                          @....",
"                          @....",
"                          @....",
"                          @....",
"                          @....",
"                          @....",
"                          @....",
"                          @....",
"                          @....",
"                          @....",
"                          @....",
"                          @....",
"                          @....",
"@@@@@@@@@@@@@@@@@@@@@@@@@@@@@@@",
"..........................@++++",
"..........................@++++",
"..........................@++++",
"..........................@++++",
};